<mxfile host="app.diagrams.net" modified="2021-12-02T17:31:48.538Z" agent="5.0 (Windows NT 10.0; Win64; x64) AppleWebKit/537.36 (KHTML, like Gecko) Chrome/96.0.4664.45 Safari/537.36" etag="lVo649t7rM_1X1bPibj9" version="15.8.8" type="github">
  <diagram id="9_qhrxk8Ev0vnHL3EA88" name="Page-1">
    <mxGraphModel dx="1955" dy="896" grid="1" gridSize="10" guides="1" tooltips="1" connect="1" arrows="1" fold="1" page="1" pageScale="1" pageWidth="850" pageHeight="1100" math="0" shadow="0">
      <root>
        <mxCell id="0" />
        <mxCell id="1" parent="0" />
        <mxCell id="bq9K6TLQNDPr1IGsPaQD-8" value="" style="edgeStyle=orthogonalEdgeStyle;rounded=0;orthogonalLoop=1;jettySize=auto;html=1;" edge="1" parent="1" source="bq9K6TLQNDPr1IGsPaQD-2" target="bq9K6TLQNDPr1IGsPaQD-6">
          <mxGeometry relative="1" as="geometry" />
        </mxCell>
        <mxCell id="bq9K6TLQNDPr1IGsPaQD-2" value="" style="ellipse;whiteSpace=wrap;html=1;aspect=fixed;" vertex="1" parent="1">
          <mxGeometry x="80" y="40" width="40" height="40" as="geometry" />
        </mxCell>
        <mxCell id="bq9K6TLQNDPr1IGsPaQD-20" value="" style="edgeStyle=orthogonalEdgeStyle;rounded=0;orthogonalLoop=1;jettySize=auto;html=1;" edge="1" parent="1" source="bq9K6TLQNDPr1IGsPaQD-3" target="bq9K6TLQNDPr1IGsPaQD-19">
          <mxGeometry relative="1" as="geometry" />
        </mxCell>
        <mxCell id="bq9K6TLQNDPr1IGsPaQD-29" style="edgeStyle=orthogonalEdgeStyle;rounded=0;orthogonalLoop=1;jettySize=auto;html=1;exitX=0.5;exitY=1;exitDx=0;exitDy=0;" edge="1" parent="1" source="bq9K6TLQNDPr1IGsPaQD-3" target="bq9K6TLQNDPr1IGsPaQD-27">
          <mxGeometry relative="1" as="geometry" />
        </mxCell>
        <mxCell id="bq9K6TLQNDPr1IGsPaQD-3" value="ingin membuat&lt;br&gt;carian?" style="rhombus;whiteSpace=wrap;html=1;" vertex="1" parent="1">
          <mxGeometry x="40" y="200" width="120" height="80" as="geometry" />
        </mxCell>
        <mxCell id="bq9K6TLQNDPr1IGsPaQD-7" value="" style="edgeStyle=orthogonalEdgeStyle;rounded=0;orthogonalLoop=1;jettySize=auto;html=1;" edge="1" parent="1" source="bq9K6TLQNDPr1IGsPaQD-6" target="bq9K6TLQNDPr1IGsPaQD-3">
          <mxGeometry relative="1" as="geometry" />
        </mxCell>
        <mxCell id="bq9K6TLQNDPr1IGsPaQD-15" style="edgeStyle=orthogonalEdgeStyle;rounded=0;orthogonalLoop=1;jettySize=auto;html=1;exitX=1;exitY=0.5;exitDx=0;exitDy=0;entryX=0;entryY=0.5;entryDx=0;entryDy=0;" edge="1" parent="1" source="bq9K6TLQNDPr1IGsPaQD-6" target="bq9K6TLQNDPr1IGsPaQD-14">
          <mxGeometry relative="1" as="geometry" />
        </mxCell>
        <mxCell id="bq9K6TLQNDPr1IGsPaQD-6" value="session = pelajar" style="rhombus;whiteSpace=wrap;html=1;" vertex="1" parent="1">
          <mxGeometry x="20" y="120" width="160" height="40" as="geometry" />
        </mxCell>
        <mxCell id="bq9K6TLQNDPr1IGsPaQD-10" value="Ya" style="text;html=1;align=center;verticalAlign=middle;resizable=0;points=[];autosize=1;strokeColor=none;fillColor=none;" vertex="1" parent="1">
          <mxGeometry x="180" y="120" width="30" height="20" as="geometry" />
        </mxCell>
        <mxCell id="bq9K6TLQNDPr1IGsPaQD-11" value="Tidak" style="text;html=1;align=center;verticalAlign=middle;resizable=0;points=[];autosize=1;strokeColor=none;fillColor=none;" vertex="1" parent="1">
          <mxGeometry x="100" y="160" width="40" height="20" as="geometry" />
        </mxCell>
        <mxCell id="bq9K6TLQNDPr1IGsPaQD-12" value="Tidak" style="text;html=1;align=center;verticalAlign=middle;resizable=0;points=[];autosize=1;strokeColor=none;fillColor=none;" vertex="1" parent="1">
          <mxGeometry x="100" y="280" width="40" height="20" as="geometry" />
        </mxCell>
        <mxCell id="bq9K6TLQNDPr1IGsPaQD-46" style="edgeStyle=orthogonalEdgeStyle;rounded=0;orthogonalLoop=1;jettySize=auto;html=1;exitX=0.5;exitY=1;exitDx=0;exitDy=0;entryX=0.5;entryY=0;entryDx=0;entryDy=0;" edge="1" parent="1" source="bq9K6TLQNDPr1IGsPaQD-14" target="bq9K6TLQNDPr1IGsPaQD-50">
          <mxGeometry relative="1" as="geometry">
            <mxPoint x="570" y="220" as="targetPoint" />
          </mxGeometry>
        </mxCell>
        <mxCell id="bq9K6TLQNDPr1IGsPaQD-57" style="edgeStyle=orthogonalEdgeStyle;rounded=0;orthogonalLoop=1;jettySize=auto;html=1;exitX=1;exitY=0.5;exitDx=0;exitDy=0;" edge="1" parent="1" source="bq9K6TLQNDPr1IGsPaQD-14">
          <mxGeometry relative="1" as="geometry">
            <mxPoint x="570" y="380" as="targetPoint" />
            <Array as="points">
              <mxPoint x="800" y="140" />
              <mxPoint x="800" y="380" />
            </Array>
          </mxGeometry>
        </mxCell>
        <mxCell id="bq9K6TLQNDPr1IGsPaQD-14" value="ingin menjawab soalan?" style="rhombus;whiteSpace=wrap;html=1;" vertex="1" parent="1">
          <mxGeometry x="470" y="115" width="200" height="50" as="geometry" />
        </mxCell>
        <mxCell id="bq9K6TLQNDPr1IGsPaQD-16" value="Ya" style="text;html=1;align=center;verticalAlign=middle;resizable=0;points=[];autosize=1;strokeColor=none;fillColor=none;" vertex="1" parent="1">
          <mxGeometry x="570" y="165" width="30" height="20" as="geometry" />
        </mxCell>
        <mxCell id="bq9K6TLQNDPr1IGsPaQD-17" value="Tidak" style="text;html=1;align=center;verticalAlign=middle;resizable=0;points=[];autosize=1;strokeColor=none;fillColor=none;" vertex="1" parent="1">
          <mxGeometry x="670" y="120" width="40" height="20" as="geometry" />
        </mxCell>
        <mxCell id="bq9K6TLQNDPr1IGsPaQD-23" value="" style="edgeStyle=orthogonalEdgeStyle;rounded=0;orthogonalLoop=1;jettySize=auto;html=1;" edge="1" parent="1" source="bq9K6TLQNDPr1IGsPaQD-19" target="bq9K6TLQNDPr1IGsPaQD-21">
          <mxGeometry relative="1" as="geometry" />
        </mxCell>
        <mxCell id="bq9K6TLQNDPr1IGsPaQD-19" value="PAPAR borang&lt;br&gt;carian pelajar" style="shape=parallelogram;perimeter=parallelogramPerimeter;whiteSpace=wrap;html=1;fixedSize=1;" vertex="1" parent="1">
          <mxGeometry x="200" y="220" width="120" height="40" as="geometry" />
        </mxCell>
        <mxCell id="bq9K6TLQNDPr1IGsPaQD-25" value="" style="edgeStyle=orthogonalEdgeStyle;rounded=0;orthogonalLoop=1;jettySize=auto;html=1;" edge="1" parent="1" source="bq9K6TLQNDPr1IGsPaQD-21" target="bq9K6TLQNDPr1IGsPaQD-24">
          <mxGeometry relative="1" as="geometry" />
        </mxCell>
        <mxCell id="bq9K6TLQNDPr1IGsPaQD-21" value="INPUT idpelajar" style="shape=parallelogram;perimeter=parallelogramPerimeter;whiteSpace=wrap;html=1;fixedSize=1;" vertex="1" parent="1">
          <mxGeometry x="360" y="230" width="120" height="20" as="geometry" />
        </mxCell>
        <mxCell id="bq9K6TLQNDPr1IGsPaQD-28" style="edgeStyle=orthogonalEdgeStyle;rounded=0;orthogonalLoop=1;jettySize=auto;html=1;" edge="1" parent="1" source="bq9K6TLQNDPr1IGsPaQD-24">
          <mxGeometry relative="1" as="geometry">
            <mxPoint x="100" y="310" as="targetPoint" />
          </mxGeometry>
        </mxCell>
        <mxCell id="bq9K6TLQNDPr1IGsPaQD-24" value="PAPAR hasil&lt;br&gt;carian" style="shape=parallelogram;perimeter=parallelogramPerimeter;whiteSpace=wrap;html=1;fixedSize=1;" vertex="1" parent="1">
          <mxGeometry x="360" y="290" width="120" height="40" as="geometry" />
        </mxCell>
        <mxCell id="bq9K6TLQNDPr1IGsPaQD-31" style="edgeStyle=orthogonalEdgeStyle;rounded=0;orthogonalLoop=1;jettySize=auto;html=1;entryX=0;entryY=0.5;entryDx=0;entryDy=0;" edge="1" parent="1" source="bq9K6TLQNDPr1IGsPaQD-27" target="bq9K6TLQNDPr1IGsPaQD-30">
          <mxGeometry relative="1" as="geometry" />
        </mxCell>
        <mxCell id="bq9K6TLQNDPr1IGsPaQD-36" style="edgeStyle=orthogonalEdgeStyle;rounded=0;orthogonalLoop=1;jettySize=auto;html=1;exitX=0.5;exitY=1;exitDx=0;exitDy=0;entryX=0.5;entryY=0;entryDx=0;entryDy=0;" edge="1" parent="1" source="bq9K6TLQNDPr1IGsPaQD-27" target="bq9K6TLQNDPr1IGsPaQD-35">
          <mxGeometry relative="1" as="geometry" />
        </mxCell>
        <mxCell id="bq9K6TLQNDPr1IGsPaQD-27" value="ingin melihat&lt;br&gt;laporan?" style="rhombus;whiteSpace=wrap;html=1;" vertex="1" parent="1">
          <mxGeometry x="40" y="340" width="120" height="80" as="geometry" />
        </mxCell>
        <mxCell id="bq9K6TLQNDPr1IGsPaQD-39" style="edgeStyle=orthogonalEdgeStyle;rounded=0;orthogonalLoop=1;jettySize=auto;html=1;" edge="1" parent="1" source="bq9K6TLQNDPr1IGsPaQD-30">
          <mxGeometry relative="1" as="geometry">
            <mxPoint x="100" y="440" as="targetPoint" />
            <Array as="points">
              <mxPoint x="260" y="440" />
            </Array>
          </mxGeometry>
        </mxCell>
        <mxCell id="bq9K6TLQNDPr1IGsPaQD-30" value="PAPAR laporan&lt;br&gt;bagi semua&lt;br&gt;pelajar" style="shape=parallelogram;perimeter=parallelogramPerimeter;whiteSpace=wrap;html=1;fixedSize=1;" vertex="1" parent="1">
          <mxGeometry x="200" y="350" width="120" height="60" as="geometry" />
        </mxCell>
        <mxCell id="bq9K6TLQNDPr1IGsPaQD-32" value="Ya" style="text;html=1;align=center;verticalAlign=middle;resizable=0;points=[];autosize=1;strokeColor=none;fillColor=none;" vertex="1" parent="1">
          <mxGeometry x="160" y="220" width="30" height="20" as="geometry" />
        </mxCell>
        <mxCell id="bq9K6TLQNDPr1IGsPaQD-33" value="Ya" style="text;html=1;align=center;verticalAlign=middle;resizable=0;points=[];autosize=1;strokeColor=none;fillColor=none;" vertex="1" parent="1">
          <mxGeometry x="160" y="360" width="30" height="20" as="geometry" />
        </mxCell>
        <mxCell id="bq9K6TLQNDPr1IGsPaQD-34" value="Tidak" style="text;html=1;align=center;verticalAlign=middle;resizable=0;points=[];autosize=1;strokeColor=none;fillColor=none;" vertex="1" parent="1">
          <mxGeometry x="100" y="420" width="40" height="20" as="geometry" />
        </mxCell>
        <mxCell id="bq9K6TLQNDPr1IGsPaQD-38" style="edgeStyle=orthogonalEdgeStyle;rounded=0;orthogonalLoop=1;jettySize=auto;html=1;entryX=0;entryY=0.5;entryDx=0;entryDy=0;" edge="1" parent="1" source="bq9K6TLQNDPr1IGsPaQD-35" target="bq9K6TLQNDPr1IGsPaQD-37">
          <mxGeometry relative="1" as="geometry" />
        </mxCell>
        <mxCell id="bq9K6TLQNDPr1IGsPaQD-41" style="edgeStyle=orthogonalEdgeStyle;rounded=0;orthogonalLoop=1;jettySize=auto;html=1;exitX=0.5;exitY=1;exitDx=0;exitDy=0;" edge="1" parent="1" source="bq9K6TLQNDPr1IGsPaQD-35">
          <mxGeometry relative="1" as="geometry">
            <mxPoint x="100" y="580" as="targetPoint" />
          </mxGeometry>
        </mxCell>
        <mxCell id="bq9K6TLQNDPr1IGsPaQD-35" value="ingin mengimport&lt;br&gt;data?" style="rhombus;whiteSpace=wrap;html=1;" vertex="1" parent="1">
          <mxGeometry x="30" y="460" width="140" height="70" as="geometry" />
        </mxCell>
        <mxCell id="bq9K6TLQNDPr1IGsPaQD-40" style="edgeStyle=orthogonalEdgeStyle;rounded=0;orthogonalLoop=1;jettySize=auto;html=1;" edge="1" parent="1" source="bq9K6TLQNDPr1IGsPaQD-37">
          <mxGeometry relative="1" as="geometry">
            <mxPoint x="100" y="550" as="targetPoint" />
            <Array as="points">
              <mxPoint x="260" y="550" />
            </Array>
          </mxGeometry>
        </mxCell>
        <mxCell id="bq9K6TLQNDPr1IGsPaQD-37" value="INPUT fail&lt;br&gt;untuk diimport" style="shape=parallelogram;perimeter=parallelogramPerimeter;whiteSpace=wrap;html=1;fixedSize=1;" vertex="1" parent="1">
          <mxGeometry x="200" y="470" width="120" height="50" as="geometry" />
        </mxCell>
        <mxCell id="bq9K6TLQNDPr1IGsPaQD-44" style="edgeStyle=orthogonalEdgeStyle;rounded=0;orthogonalLoop=1;jettySize=auto;html=1;entryX=0.5;entryY=0;entryDx=0;entryDy=0;" edge="1" parent="1" source="bq9K6TLQNDPr1IGsPaQD-42" target="bq9K6TLQNDPr1IGsPaQD-43">
          <mxGeometry relative="1" as="geometry" />
        </mxCell>
        <mxCell id="bq9K6TLQNDPr1IGsPaQD-42" value="Log keluar" style="rounded=0;whiteSpace=wrap;html=1;" vertex="1" parent="1">
          <mxGeometry x="40" y="580" width="120" height="30" as="geometry" />
        </mxCell>
        <mxCell id="bq9K6TLQNDPr1IGsPaQD-43" value="TAMAT" style="ellipse;whiteSpace=wrap;html=1;" vertex="1" parent="1">
          <mxGeometry x="40" y="660" width="120" height="40" as="geometry" />
        </mxCell>
        <mxCell id="bq9K6TLQNDPr1IGsPaQD-49" style="edgeStyle=orthogonalEdgeStyle;rounded=0;orthogonalLoop=1;jettySize=auto;html=1;exitX=0.5;exitY=1;exitDx=0;exitDy=0;entryX=0.5;entryY=0;entryDx=0;entryDy=0;" edge="1" parent="1" source="bq9K6TLQNDPr1IGsPaQD-45" target="bq9K6TLQNDPr1IGsPaQD-48">
          <mxGeometry relative="1" as="geometry" />
        </mxCell>
        <mxCell id="bq9K6TLQNDPr1IGsPaQD-45" value="PAPAR soalan" style="shape=parallelogram;perimeter=parallelogramPerimeter;whiteSpace=wrap;html=1;fixedSize=1;" vertex="1" parent="1">
          <mxGeometry x="510" y="270" width="120" height="40" as="geometry" />
        </mxCell>
        <mxCell id="bq9K6TLQNDPr1IGsPaQD-53" style="edgeStyle=orthogonalEdgeStyle;rounded=0;orthogonalLoop=1;jettySize=auto;html=1;" edge="1" parent="1" source="bq9K6TLQNDPr1IGsPaQD-48" target="bq9K6TLQNDPr1IGsPaQD-52">
          <mxGeometry relative="1" as="geometry" />
        </mxCell>
        <mxCell id="bq9K6TLQNDPr1IGsPaQD-48" value="Jawab soalan" style="rounded=0;whiteSpace=wrap;html=1;" vertex="1" parent="1">
          <mxGeometry x="510" y="340" width="120" height="30" as="geometry" />
        </mxCell>
        <mxCell id="bq9K6TLQNDPr1IGsPaQD-51" style="edgeStyle=orthogonalEdgeStyle;rounded=0;orthogonalLoop=1;jettySize=auto;html=1;exitX=0.5;exitY=1;exitDx=0;exitDy=0;" edge="1" parent="1" source="bq9K6TLQNDPr1IGsPaQD-50" target="bq9K6TLQNDPr1IGsPaQD-45">
          <mxGeometry relative="1" as="geometry" />
        </mxCell>
        <mxCell id="bq9K6TLQNDPr1IGsPaQD-50" value="PILIH topik" style="shape=parallelogram;perimeter=parallelogramPerimeter;whiteSpace=wrap;html=1;fixedSize=1;" vertex="1" parent="1">
          <mxGeometry x="510" y="200" width="120" height="40" as="geometry" />
        </mxCell>
        <mxCell id="bq9K6TLQNDPr1IGsPaQD-58" style="edgeStyle=orthogonalEdgeStyle;rounded=0;orthogonalLoop=1;jettySize=auto;html=1;exitX=1;exitY=0.5;exitDx=0;exitDy=0;" edge="1" parent="1" source="bq9K6TLQNDPr1IGsPaQD-52">
          <mxGeometry relative="1" as="geometry">
            <mxPoint x="100" y="630" as="targetPoint" />
            <Array as="points">
              <mxPoint x="800" y="440" />
              <mxPoint x="800" y="630" />
            </Array>
          </mxGeometry>
        </mxCell>
        <mxCell id="bq9K6TLQNDPr1IGsPaQD-62" value="" style="edgeStyle=orthogonalEdgeStyle;rounded=0;orthogonalLoop=1;jettySize=auto;html=1;" edge="1" parent="1" source="bq9K6TLQNDPr1IGsPaQD-52" target="bq9K6TLQNDPr1IGsPaQD-61">
          <mxGeometry relative="1" as="geometry" />
        </mxCell>
        <mxCell id="bq9K6TLQNDPr1IGsPaQD-52" value="ingin melihat semula&lt;br&gt;soalan untuk&lt;br&gt;mengulangkaji?" style="rhombus;whiteSpace=wrap;html=1;" vertex="1" parent="1">
          <mxGeometry x="470" y="395" width="200" height="90" as="geometry" />
        </mxCell>
        <mxCell id="bq9K6TLQNDPr1IGsPaQD-54" value="Tidak" style="text;html=1;align=center;verticalAlign=middle;resizable=0;points=[];autosize=1;strokeColor=none;fillColor=none;" vertex="1" parent="1">
          <mxGeometry x="670" y="420" width="40" height="20" as="geometry" />
        </mxCell>
        <mxCell id="bq9K6TLQNDPr1IGsPaQD-63" style="edgeStyle=orthogonalEdgeStyle;rounded=0;orthogonalLoop=1;jettySize=auto;html=1;" edge="1" parent="1" source="bq9K6TLQNDPr1IGsPaQD-61">
          <mxGeometry relative="1" as="geometry">
            <mxPoint x="570" y="630" as="targetPoint" />
          </mxGeometry>
        </mxCell>
        <mxCell id="bq9K6TLQNDPr1IGsPaQD-61" value="PAPAR soalan&lt;br&gt;yang telah&lt;br&gt;dijawab" style="shape=parallelogram;perimeter=parallelogramPerimeter;whiteSpace=wrap;html=1;fixedSize=1;" vertex="1" parent="1">
          <mxGeometry x="510" y="510" width="120" height="60" as="geometry" />
        </mxCell>
      </root>
    </mxGraphModel>
  </diagram>
</mxfile>
